{"accessors":[{"bufferView":0,"componentType":5123,"count":96,"type":"SCALAR"},{"bufferView":1,"componentType":5126,"count":54,"type":"VEC3","max":[41.15814,164.041992,6.66010475],"min":[-41.15814,-164.041992,-2.42206255E-12]},{"bufferView":1,"byteOffset":12,"componentType":5126,"count":54,"type":"VEC3"},{"bufferView":1,"byteOffset":24,"componentType":5126,"count":54,"type":"VEC2"},{"bufferView":2,"componentType":5123,"count":36,"type":"SCALAR"},{"bufferView":3,"componentType":5126,"count":24,"type":"VEC3","max":[13.12336,164.041992,0.984252],"min":[-13.12336,-164.041992,-2.274625E-12]},{"bufferView":3,"byteOffset":12,"componentType":5126,"count":24,"type":"VEC3"},{"bufferView":3,"byteOffset":24,"componentType":5126,"count":24,"type":"VEC2"},{"bufferView":4,"componentType":5123,"count":36,"type":"SCALAR"},{"bufferView":5,"componentType":5126,"count":24,"type":"VEC3","max":[13.12336,164.041992,0.9186352],"min":[-13.12336,-164.041992,-2.274625E-12]},{"bufferView":5,"byteOffset":12,"componentType":5126,"count":24,"type":"VEC3"},{"bufferView":5,"byteOffset":24,"componentType":5126,"count":24,"type":"VEC2"},{"bufferView":6,"componentType":5123,"count":36,"type":"SCALAR"},{"bufferView":7,"componentType":5126,"count":24,"type":"VEC3","max":[13.12336,164.041992,0.82021],"min":[-13.12336,-164.041992,-2.274625E-12]},{"bufferView":7,"byteOffset":12,"componentType":5126,"count":24,"type":"VEC3"},{"bufferView":7,"byteOffset":24,"componentType":5126,"count":24,"type":"VEC2"},{"bufferView":8,"componentType":5123,"count":36,"type":"SCALAR"},{"bufferView":9,"componentType":5126,"count":24,"type":"VEC3","max":[13.12336,164.041992,0.0984251946],"min":[-13.12336,-164.041992,-2.27459718E-12]},{"bufferView":9,"byteOffset":12,"componentType":5126,"count":24,"type":"VEC3"},{"bufferView":9,"byteOffset":24,"componentType":5126,"count":24,"type":"VEC2"},{"bufferView":10,"componentType":5123,"count":36,"type":"SCALAR"},{"bufferView":11,"componentType":5126,"count":24,"type":"VEC3","max":[13.12336,164.041992,0.196850389],"min":[-13.12336,-164.041992,-2.27459718E-12]},{"bufferView":11,"byteOffset":12,"componentType":5126,"count":24,"type":"VEC3"},{"bufferView":11,"byteOffset":24,"componentType":5126,"count":24,"type":"VEC2"},{"bufferView":12,"componentType":5123,"count":36,"type":"SCALAR"},{"bufferView":13,"componentType":5126,"count":24,"type":"VEC3","max":[1.64042,164.041992,3.28084],"min":[-1.64042,-164.041992,-2.274625E-12]},{"bufferView":13,"byteOffset":12,"componentType":5126,"count":24,"type":"VEC3"},{"bufferView":13,"byteOffset":24,"componentType":5126,"count":24,"type":"VEC2"},{"bufferView":14,"componentType":5123,"count":18990,"type":"SCALAR"},{"bufferView":15,"componentType":5126,"count":8094,"type":"VEC3","max":[15.8136148,5.77426624,16.5707245],"min":[-15.8136148,-5.77426672,3.80962276]},{"bufferView":15,"byteOffset":12,"componentType":5126,"count":8094,"type":"VEC3"},{"bufferView":16,"componentType":5123,"count":7752,"type":"SCALAR"},{"bufferView":17,"componentType":5126,"count":3520,"type":"VEC3","max":[14.2716246,5.83988333,10.1090679],"min":[-14.2716246,-5.83988333,-4.734277E-07]},{"bufferView":17,"byteOffset":12,"componentType":5126,"count":3520,"type":"VEC3"},{"bufferView":18,"componentType":5123,"count":30708,"type":"SCALAR"},{"bufferView":19,"componentType":5126,"count":11700,"type":"VEC3","max":[3.80576682,5.675842,10.00683],"min":[-4.93770361,-5.67584133,3.37925768]},{"bufferView":19,"byteOffset":12,"componentType":5126,"count":11700,"type":"VEC3"},{"bufferView":20,"componentType":5123,"count":41268,"type":"SCALAR"},{"bufferView":21,"componentType":5126,"count":19852,"type":"VEC3","max":[26.0006027,11.7617884,13.5587511],"min":[-5.98752165,-0.935038149,-8.922101E-07]},{"bufferView":21,"byteOffset":12,"componentType":5126,"count":19852,"type":"VEC3"},{"bufferView":22,"componentType":5123,"count":7848,"type":"SCALAR"},{"bufferView":23,"componentType":5126,"count":2656,"type":"VEC3","max":[15.8136148,5.70865,5.443792],"min":[-15.8136148,-5.70865,4.7801075]},{"bufferView":23,"byteOffset":12,"componentType":5126,"count":2656,"type":"VEC3"},{"bufferView":24,"componentType":5123,"count":36,"type":"SCALAR"},{"bufferView":25,"componentType":5126,"count":24,"type":"VEC3","max":[13.12336,164.041992,0.164042],"min":[-13.12336,-164.041992,-2.27459718E-12]},{"bufferView":25,"byteOffset":12,"componentType":5126,"count":24,"type":"VEC3"},{"bufferView":25,"byteOffset":24,"componentType":5126,"count":24,"type":"VEC2"},{"bufferView":26,"componentType":5123,"count":6,"type":"SCALAR"},{"bufferView":27,"componentType":5126,"count":4,"type":"VEC3","max":[-0.125370741,0.03262016,0.0],"min":[-0.330666,-0.03262016,0.0]}],"asset":{"copyright":"**Trial version, Do not use for commercial purpose!** Copyright BimAngle 2017-2021","generator":"**Trial version, Do not use for commercial purpose!** BimAngle Engine (For Revit) 2021.9.17","version":"2.0"},"buffers":[{"uri":"New_road_7.bin","byteLength":1320720}],"bufferViews":[{"buffer":0,"byteLength":192,"target":34963},{"buffer":0,"byteOffset":192,"byteLength":1728,"byteStride":32,"target":34962},{"buffer":0,"byteOffset":1920,"byteLength":72,"target":34963},{"buffer":0,"byteOffset":1992,"byteLength":768,"byteStride":32,"target":34962},{"buffer":0,"byteOffset":2760,"byteLength":72,"target":34963},{"buffer":0,"byteOffset":2832,"byteLength":768,"byteStride":32,"target":34962},{"buffer":0,"byteOffset":3600,"byteLength":72,"target":34963},{"buffer":0,"byteOffset":3672,"byteLength":768,"byteStride":32,"target":34962},{"buffer":0,"byteOffset":4440,"byteLength":72,"target":34963},{"buffer":0,"byteOffset":4512,"byteLength":768,"byteStride":32,"target":34962},{"buffer":0,"byteOffset":5280,"byteLength":72,"target":34963},{"buffer":0,"byteOffset":5352,"byteLength":768,"byteStride":32,"target":34962},{"buffer":0,"byteOffset":6120,"byteLength":72,"target":34963},{"buffer":0,"byteOffset":6192,"byteLength":768,"byteStride":32,"target":34962},{"buffer":0,"byteOffset":6960,"byteLength":37980,"target":34963},{"buffer":0,"byteOffset":44940,"byteLength":194256,"byteStride":24,"target":34962},{"buffer":0,"byteOffset":239196,"byteLength":15504,"target":34963},{"buffer":0,"byteOffset":254700,"byteLength":84480,"byteStride":24,"target":34962},{"buffer":0,"byteOffset":339180,"byteLength":61416,"target":34963},{"buffer":0,"byteOffset":400596,"byteLength":280800,"byteStride":24,"target":34962},{"buffer":0,"byteOffset":681396,"byteLength":82536,"target":34963},{"buffer":0,"byteOffset":763932,"byteLength":476448,"byteStride":24,"target":34962},{"buffer":0,"byteOffset":1240380,"byteLength":15696,"target":34963},{"buffer":0,"byteOffset":1256076,"byteLength":63744,"byteStride":24,"target":34962},{"buffer":0,"byteOffset":1319820,"byteLength":72,"target":34963},{"buffer":0,"byteOffset":1319892,"byteLength":768,"byteStride":32,"target":34962},{"buffer":0,"byteOffset":1320660,"byteLength":12,"target":34963},{"buffer":0,"byteOffset":1320672,"byteLength":48,"target":34962}],"images":[{"uri":"New_road_7_img_000.jpg"},{"uri":"New_road_7_img_001.jpg"},{"uri":"New_road_7_img_002.jpg"},{"uri":"New_road_7_img_003.jpg"},{"uri":"New_road_7_img_004.jpg"},{"uri":"New_road_7_img_005.jpg"},{"uri":"New_road_7_img_006.jpg"},{"uri":"New_road_7_img_007.png"},{"uri":"New_road_7_img_008.png"},{"uri":"New_road_7_img_009.jpg"},{"uri":"New_road_7_img_010.png"},{"uri":"New_road_7_img_011.jpg"},{"uri":"New_road_7_img_012.png"}],"materials":[{"pbrMetallicRoughness":{"baseColorTexture":{"index":0},"metallicFactor":0.2,"roughnessFactor":0.75},"doubleSided":true},{"pbrMetallicRoughness":{"baseColorFactor":[0.7472677,0.7100149,0.6272654,1.0],"baseColorTexture":{"index":1},"metallicFactor":0.2},"doubleSided":true},{"pbrMetallicRoughness":{"baseColorFactor":[0.487024873,0.441035539,0.388994873,1.0],"baseColorTexture":{"index":2},"metallicFactor":0.2},"doubleSided":true},{"pbrMetallicRoughness":{"baseColorFactor":[0.8200415,0.820040762,0.8195957,1.0],"baseColorTexture":{"index":3},"metallicFactor":0.2},"normalTexture":{"index":4,"scale":0.1},"doubleSided":true},{"pbrMetallicRoughness":{"baseColorFactor":[0.337845027,0.3085665,0.280522257,1.0],"baseColorTexture":{"index":5},"metallicFactor":0.2,"roughnessFactor":0.7261387},"normalTexture":{"index":6,"scale":0.1},"doubleSided":true},{"pbrMetallicRoughness":{"baseColorTexture":{"index":7},"metallicFactor":0.2},"normalTexture":{"index":8,"scale":20.0},"alphaMode":"MASK","doubleSided":true},{"pbrMetallicRoughness":{"baseColorTexture":{"index":9},"metallicFactor":0.2},"normalTexture":{"index":10},"doubleSided":true},{"pbrMetallicRoughness":{"baseColorFactor":[0.04,0.04,0.04,1.0],"metallicFactor":0.1,"roughnessFactor":0.9},"doubleSided":true},{"pbrMetallicRoughness":{"baseColorFactor":[0.7411765,0.733333349,0.7254902,1.0],"metallicFactor":0.0,"roughnessFactor":0.75},"doubleSided":true},{"pbrMetallicRoughness":{"baseColorFactor":[0.9,0.9,0.9,0.0],"metallicFactor":0.0,"roughnessFactor":0.75},"alphaMode":"BLEND","doubleSided":true},{"pbrMetallicRoughness":{"baseColorFactor":[0.9490196,0.4745098,0.0,1.0],"metallicFactor":0.0,"roughnessFactor":0.75},"doubleSided":true},{"pbrMetallicRoughness":{"metallicFactor":0.0,"roughnessFactor":0.75},"doubleSided":true},{"pbrMetallicRoughness":{"baseColorFactor":[0.02,0.02,0.02,1.0],"baseColorTexture":{"index":11},"metallicFactor":0.2,"roughnessFactor":0.75},"normalTexture":{"index":12},"doubleSided":true},{"pbrMetallicRoughness":{"baseColorFactor":[0.0,0.0,0.0,1.0],"metallicFactor":0.0,"roughnessFactor":0.8828125},"doubleSided":true}],"meshes":[{"primitives":[{"attributes":{"POSITION":1,"NORMAL":2,"TEXCOORD_0":3},"indices":0,"material":0}]},{"primitives":[{"attributes":{"POSITION":5,"NORMAL":6,"TEXCOORD_0":7},"indices":4,"material":1}]},{"primitives":[{"attributes":{"POSITION":9,"NORMAL":10,"TEXCOORD_0":11},"indices":8,"material":2}]},{"primitives":[{"attributes":{"POSITION":13,"NORMAL":14,"TEXCOORD_0":15},"indices":12,"material":3}]},{"primitives":[{"attributes":{"POSITION":17,"NORMAL":18,"TEXCOORD_0":19},"indices":16,"material":4}]},{"primitives":[{"attributes":{"POSITION":21,"NORMAL":22,"TEXCOORD_0":23},"indices":20,"material":5}]},{"primitives":[{"attributes":{"POSITION":25,"NORMAL":26,"TEXCOORD_0":27},"indices":24,"material":6}]},{"primitives":[{"attributes":{"POSITION":44,"NORMAL":45,"TEXCOORD_0":46},"indices":43,"material":12}]},{"primitives":[{"attributes":{"POSITION":29,"NORMAL":30},"indices":28,"material":7}]},{"primitives":[{"attributes":{"POSITION":32,"NORMAL":33},"indices":31,"material":8}]},{"primitives":[{"attributes":{"POSITION":35,"NORMAL":36},"indices":34,"material":9}]},{"primitives":[{"attributes":{"POSITION":38,"NORMAL":39},"indices":37,"material":10}]},{"primitives":[{"attributes":{"POSITION":41,"NORMAL":42},"indices":40,"material":11}]},{"primitives":[{"attributes":{"POSITION":48},"indices":47,"material":13}]}],"nodes":[{"children":[1,2,3,4,5,6,7,8,9,10,11,12,13,14,20,21],"matrix":[0.3048,0.0,0.0,0.0,0.0,0.0,-0.3048,0.0,0.0,0.3048,0.0,0.0,0.0,0.0,0.0,1.0],"name":"_Root"},{"mesh":0,"translation":[-46.4982643,-33.0002975,0.0],"name":"\u65b0\u586b\u65b9\u8def\u57fa [335971]"},{"mesh":1,"translation":[-61.2620468,-33.0002975,3.28084],"name":"road_5 [337571]"},{"mesh":1,"translation":[-31.7344856,-33.0002975,3.28084],"name":"road_5 [339145]"},{"mesh":2,"translation":[-61.2620468,-33.0002975,4.265092],"name":"road_4 [337681]"},{"mesh":2,"translation":[-31.7344856,-33.0002975,4.265092],"name":"road_4 [339146]"},{"mesh":3,"translation":[-61.2620468,-33.0002975,5.183727],"name":"road_3 [338019]"},{"mesh":3,"translation":[-31.7344856,-33.0002975,5.183727],"name":"road_3 [339149]"},{"mesh":4,"translation":[-61.2620468,-33.0002975,6.003937],"name":"road_2 [338579]"},{"mesh":4,"translation":[-31.7344856,-33.0002975,6.003937],"name":"road_2 [339150]"},{"mesh":5,"translation":[-61.2620468,-33.0002975,6.102362],"name":"road_1 [338612]"},{"mesh":5,"translation":[-31.7344856,-33.0002975,6.102362],"name":"road_1 [339152]"},{"mesh":6,"translation":[-46.4982643,-33.0002975,3.28084],"name":"\u7eff\u5316\u5e26 [344027]"},{"mesh":7,"translation":[-61.2620468,-33.0002975,6.299212],"name":"road_0 [370266]"},{"mesh":7,"translation":[-31.7344856,-33.0002975,6.299212],"name":"road_0 [370324]"},{"matrix":[0.0,1.0,0.0,0.0,-1.0,0.0,0.0,0.0,0.0,0.0,1.0,0.0,-29.7657223,-73.61818,6.56168,1.0],"mesh":8},{"matrix":[0.0,1.0,0.0,0.0,-1.0,0.0,0.0,0.0,0.0,0.0,1.0,0.0,-29.7657223,-73.61818,6.56168,1.0],"mesh":9},{"matrix":[0.0,1.0,0.0,0.0,-1.0,0.0,0.0,0.0,0.0,0.0,1.0,0.0,-29.7657223,-73.61818,6.56168,1.0],"mesh":10},{"matrix":[0.0,1.0,0.0,0.0,-1.0,0.0,0.0,0.0,0.0,0.0,1.0,0.0,-24.3523483,-83.62472,6.725722,1.0],"mesh":11},{"matrix":[0.0,1.0,0.0,0.0,-1.0,0.0,0.0,0.0,0.0,0.0,1.0,0.0,-29.7657223,-73.61818,6.56168,1.0],"mesh":12},{"children":[15,16,17,18,19],"name":"Caterpillar\u6ca5\u9752\u53cc\u94a2\u8f6e\u538b\u8def\u673a [361336]"},{"matrix":[0.973729,0.225704,-0.030148,0.0,0.0,0.132399,0.991196,0.0,-0.227709,0.965157,-0.128921,0.0,211.77417,191.880356,227.670044,1.0],"mesh":13,"name":"\u89c6\u56fe\u53c2\u7167 1 [361650]"}],"samplers":[{"magFilter":9729,"minFilter":9987}],"scene":0,"scenes":[{"nodes":[0],"name":"glTF-Model","extras":{"Version":2,"ModelTitle":"\u65b0\u8def\u9762\u7ed3\u6784","ModelId":"fd124fda-9901-4410-ba64-8863534192a5","ModelBoundingBox":[-26.717671508789063,-7.5158032958018771E-13,-58.477821276855458,64.5115599609375,69.40672163085938,60.058492236328128],"PartFileEnabled":false,"PartFileIndex":0,"PartFileNames":null,"InfoFileName":null}}],"textures":[{"sampler":0,"source":0},{"sampler":0,"source":1},{"sampler":0,"source":2},{"sampler":0,"source":3},{"sampler":0,"source":4},{"sampler":0,"source":5},{"sampler":0,"source":6},{"sampler":0,"source":7},{"sampler":0,"source":8},{"sampler":0,"source":9},{"sampler":0,"source":10},{"sampler":0,"source":11},{"sampler":0,"source":12}]}